<svg width="24" height="20" viewBox="0 0 24 20" fill="none" xmlns="http://www.w3.org/2000/svg">
<path d="M2.4 19.2C1.74 19.2 1.175 18.965 0.705 18.495C0.235 18.025 0 17.46 0 16.8V2.4C0 1.74 0.235 1.175 0.705 0.705C1.175 0.235 1.74 0 2.4 0H21.6C22.26 0 22.825 0.235 23.295 0.705C23.765 1.175 24 1.74 24 2.4V16.8C24 17.46 23.765 18.025 23.295 18.495C22.825 18.965 22.26 19.2 21.6 19.2H2.4ZM12 10.8L2.4 4.8V16.8H21.6V4.8L12 10.8ZM12 8.4L21.6 2.4H2.4L12 8.4ZM2.4 4.8V2.4V16.8V4.8Z" fill="#F8F4EC"/>
</svg>
